<svg width="37" height="37" viewBox="0 0 37 37" fill="none" xmlns="http://www.w3.org/2000/svg">
<circle cx="18.5" cy="18.5" r="18.5" fill="#E6DCD4"/>
<path d="M11.3761 28V9.81818H18.9577C20.319 9.81818 21.4583 10.0105 22.3757 10.3952C23.299 10.7799 23.9915 11.3185 24.4531 12.011C24.9207 12.7035 25.1545 13.5054 25.1545 14.4169C25.1545 15.1094 25.0095 15.7279 24.7195 16.2724C24.4295 16.811 24.0299 17.2578 23.521 17.6129C23.012 17.968 22.4231 18.2166 21.7543 18.3587V18.5362C22.4882 18.5717 23.1658 18.77 23.7873 19.131C24.4147 19.4921 24.9177 19.9951 25.2965 20.6403C25.6753 21.2795 25.8647 22.0371 25.8647 22.913C25.8647 23.8896 25.6161 24.7625 25.119 25.532C24.6218 26.2955 23.9027 26.8991 22.9616 27.343C22.0206 27.781 20.8783 28 19.5348 28H11.3761ZM15.7706 24.4577H18.4872C19.4401 24.4577 20.1415 24.2772 20.5913 23.9162C21.047 23.5552 21.2749 23.0521 21.2749 22.407C21.2749 21.9394 21.1654 21.5369 20.9464 21.1996C20.7274 20.8563 20.4167 20.5929 20.0142 20.4094C19.6117 20.2201 19.1294 20.1254 18.5671 20.1254H15.7706V24.4577ZM15.7706 17.2933H18.2031C18.6825 17.2933 19.1087 17.2134 19.4815 17.0536C19.8544 16.8938 20.1444 16.663 20.3516 16.3612C20.5646 16.0593 20.6712 15.6953 20.6712 15.2692C20.6712 14.6596 20.4551 14.1802 20.0231 13.831C19.591 13.4818 19.008 13.3072 18.2741 13.3072H15.7706V17.2933Z" fill="#32312E"/>
</svg>
